<?xml version="1.0" encoding="UTF-8"?>
<!-- Creator: CorelDRAW -->
<svg xmlns="http://www.w3.org/2000/svg" xml:space="preserve" width="6.82666in" height="6.82666in" style="shape-rendering:geometricPrecision; text-rendering:geometricPrecision; image-rendering:optimizeQuality; fill-rule:evenodd; clip-rule:evenodd"
viewBox="0 0 6.82666 6.82666"
 xmlns:xlink="http://www.w3.org/1999/xlink">
 <defs>
  <style type="text/css">
   <![CDATA[
    .fil0 {fill:#FFCA28}
    .fil1 {fill:#FFFFFE}
    .fil2 {fill:#FFFFFE;fill-rule:nonzero}
   ]]>
  </style>
 </defs>
 <g id="Layer_x0020_1">
  <metadata id="CorelCorpID_0Corel-Layer"/>
  <rect class="fil0" width="6.82666" height="6.82666" rx="0.853335" ry="0.853335"/>
  <path class="fil1" d="M0.959996 1.01932l4.90667 0c0.0589094,0 0.106669,0.0477598 0.106669,0.106669l0 2.34666c0,0.0589094 -0.0477598,0.106669 -0.106669,0.106669l-4.90667 0c-0.0589094,0 -0.106669,-0.0477598 -0.106669,-0.106669l0 -2.34666c0,-0.0589094 0.0477598,-0.106669 0.106669,-0.106669zm1.27313 1.15441l0 -0.736398 0.144705 0 0.301417 0.491732 0 -0.491732 0.138193 0 0 0.736398 -0.149335 0 -0.296791 -0.480244 0 0.480244 -0.138189 0zm-0.513677 0.975071l0 -0.736398 0.148823 0 0 0.28976 0.291303 0 0 -0.28976 0.14865 0 0 0.736398 -0.14865 0 0 -0.321992 -0.291303 0 0 0.321992 -0.148823 0zm0.737941 0l0 -0.736398 0.148654 0 0 0.736398 -0.148654 0zm0.290787 0l0 -0.736398 0.313079 0c0.0786969,0 0.135791,0.00668504 0.171453,0.0198898 0.0356614,0.0132008 0.0642953,0.036689 0.0857283,0.0704646 0.0214331,0.0339488 0.032063,0.0725276 0.032063,0.116075 0,0.0552087 -0.0162913,0.100988 -0.0486929,0.136996 -0.0324055,0.0358307 -0.0810984,0.0586339 -0.14574,0.0678937 0.0322362,0.0188622 0.058811,0.039437 0.0797283,0.0618976 0.0209173,0.0224606 0.0490354,0.0622362 0.0845276,0.119504l0.0900118 0.143677 -0.177795 0 -0.107504 -0.160311c-0.0382362,-0.0572638 -0.0642953,-0.0932717 -0.0783543,-0.108189 -0.0140591,-0.0149134 -0.0289764,-0.0250315 -0.044752,-0.030689 -0.0157717,-0.00548425 -0.0406339,-0.00822835 -0.0749252,-0.00822835l-0.0300039 0 0 0.307417 -0.148823 0zm0.148823 -0.425035l0.109902 0c0.0713268,0 0.115906,-0.00291732 0.133736,-0.00891732 0.0176614,-0.006 0.0315472,-0.0164606 0.0416654,-0.0312047 0.00994094,-0.0147441 0.0150866,-0.0330906 0.0150866,-0.0552087 0,-0.0248583 -0.00668898,-0.044748 -0.0198898,-0.0600079 -0.0132008,-0.0152598 -0.0318898,-0.0248622 -0.0560669,-0.0289764 -0.012,-0.00154331 -0.0481772,-0.00240157 -0.108528,-0.00240157l-0.115906 0 0 0.186717zm0.589118 0.425035l0 -0.736398 0.148654 0 0 0.736398 -0.148654 0zm0.291819 0l0 -0.736398 0.144705 0 0.301417 0.491732 0 -0.491732 0.138193 0 0 0.736398 -0.149335 0 -0.296791 -0.480244 0 0.480244 -0.138189 0zm1.08411 -0.270728l0 -0.12413 0.320449 0 0 0.293358c-0.0312047,0.0301732 -0.0762953,0.056752 -0.135449,0.0797244 -0.0591535,0.0228031 -0.118988,0.0342913 -0.179512,0.0342913 -0.0769843,0 -0.144197,-0.0161181 -0.201461,-0.0483504 -0.0572677,-0.0324055 -0.100303,-0.0785276 -0.129106,-0.138705 -0.0288031,-0.0601811 -0.0432047,-0.125508 -0.0432047,-0.196146 0,-0.0766417 0.0161142,-0.144878 0.0481772,-0.204547 0.0322323,-0.0594921 0.0792126,-0.105272 0.14128,-0.136992 0.0471496,-0.0245157 0.105957,-0.036689 0.176256,-0.036689 0.0913858,0 0.162882,0.0192008 0.214146,0.057437 0.051437,0.0384055 0.0845276,0.0913858 0.0992717,0.15911l-0.147622 0.0276024c-0.0104567,-0.0361772 -0.0300039,-0.0648071 -0.0586378,-0.0857244 -0.0286339,-0.0209213 -0.0642953,-0.031378 -0.107157,-0.031378 -0.0649803,0 -0.116591,0.0205748 -0.154996,0.0617244 -0.0384055,0.0413189 -0.057437,0.102358 -0.057437,0.183457 0,0.0872677 0.019374,0.152937 0.0582953,0.196657 0.038748,0.0437205 0.0896693,0.0654961 0.152594,0.0654961 0.0312047,0 0.0624094,-0.00617323 0.0937835,-0.0183465 0.0312047,-0.0121732 0.058126,-0.0270906 0.0805866,-0.0444055l0 -0.0934449 -0.170256 0zm-1.91756 -1.068c0,-0.0750984 0.0111457,-0.138024 0.0336063,-0.188945 0.0168031,-0.037378 0.0396063,-0.0711535 0.0685827,-0.100988 0.0289764,-0.0296614 0.0606929,-0.0517795 0.0951575,-0.0661811 0.0459488,-0.0195433 0.0987559,-0.0291457 0.158768,-0.0291457 0.108531,0 0.195287,0.0336024 0.260437,0.100984 0.0651535,0.0672126 0.0977323,0.160827 0.0977323,0.280673 0,0.118988 -0.0324055,0.211917 -0.0970433,0.27913 -0.0646417,0.0670354 -0.151051,0.100642 -0.259071,0.100642 -0.109559,0 -0.196657,-0.0334331 -0.261295,-0.10013 -0.0646378,-0.0668661 -0.096874,-0.158937 -0.096874,-0.276039zm0.15311 -0.00497244c0,0.0833268 0.019374,0.146591 0.0577795,0.189626 0.0385787,0.0430354 0.0874449,0.0644685 0.146768,0.0644685 0.0591496,0 0.107843,-0.0212598 0.145906,-0.064126 0.0378937,-0.042689 0.0569252,-0.106642 0.0569252,-0.192028 0,-0.0843543 -0.0185197,-0.14728 -0.0553819,-0.188945 -0.0370315,-0.0414921 -0.0862402,-0.0622362 -0.147449,-0.0622362 -0.0613819,0 -0.11076,0.0210906 -0.148311,0.0630945 -0.037374,0.0420079 -0.0562362,0.105276 -0.0562362,0.190146zm0.781665 0.368626l-0.17574 -0.736398 0.152079 0 0.111102 0.505791 0.134591 -0.505791 0.176772 0 0.129106 0.514362 0.112988 -0.514362 0.149681 0 -0.178831 0.736398 -0.157736 0 -0.146594 -0.550539 -0.146252 0.550539 -0.161165 0z"/>
  <path class="fil2" d="M3.60196 3.52c0,-0.0589094 -0.0844567,-0.106669 -0.188634,-0.106669 -0.104177,0 -0.188634,0.0477598 -0.188634,0.106669l0 2.34667c0,0.0589094 0.0844567,0.106669 0.188634,0.106669 0.104177,0 0.188634,-0.0477598 0.188634,-0.106669l0 -2.34667z"/>
 </g>
</svg>
